<svg id="Layer_1" data-name="Layer 1" xmlns="http://www.w3.org/2000/svg" viewBox="0 0 612 275.99"><defs><style>.cls-1{opacity:0.2;}.cls-2{fill:#fff200;}.cls-3{fill:#231f20;}</style></defs><title>header</title><g class="cls-1"><path class="cls-2" d="M161,91.91a6.48,6.48,0,0,1,7.39-.83l-.51-3.93a4.76,4.76,0,0,0-.59,5.83c1.39,2.36,4.74,3.06,3.8,6.37-.88,3.1,3.95,4.43,4.82,1.33a8.32,8.32,0,0,0-.29-5.7c-.25-.57-3.5-5.1-4.22-4.28a2.53,2.53,0,0,0-.51-3.93,11.66,11.66,0,0,0-13.45,1.61C155,90.5,158.6,94,161,91.91Z"/></g><g class="cls-1"><path class="cls-2" d="M122.92,86.2a5.85,5.85,0,0,1,6.14-.36l-.51-3.93a22.91,22.91,0,0,1-5.12,4.77l3.76,2.16A9,9,0,0,0,126,83.64l-3.42,3.42a14.69,14.69,0,0,1,7.15,13.53c-.14,3.22,4.86,3.21,5,0a19.74,19.74,0,0,0-9.62-17.84c-2.22-1.34-4.55,1.28-3.42,3.42a3.51,3.51,0,0,1,.47,2.68A2.51,2.51,0,0,0,125.95,91a27.21,27.21,0,0,0,6.14-5.55c.95-1.17,1.06-3.12-.51-3.93a10.91,10.91,0,0,0-11.19.36c-2.72,1.7-.22,6,2.52,4.32Z"/></g><g class="cls-1"><path class="cls-2" d="M101.41,224.81,95,232.19,99.29,234a42.83,42.83,0,0,1,3.18-20l-4.82-1.33c-1.2,4.69-2.62,9.29-4.27,13.84l4.91.66a28.54,28.54,0,0,1,.36-8.09l-4.91-.66a76.7,76.7,0,0,0,2.8,21.61,2.53,2.53,0,0,0,4.18,1.1c5.16-4.71,5.1-12,9.5-17.17l-4.27-1.77q-.8,8.13-2.32,16.15h4.82a12.38,12.38,0,0,1,1.91-9.69H106a19,19,0,0,1,2.12,5.39c.65,2.8,4.85,2.1,4.91-.66,0-1.35.52-3.54.11-4.86q.72-2.89-1.28-.7l.39.51c.35,1.61,3.85,2.67,5.11,2.88,4.84.8,9-2.3,12.19-5.63,2.19-2.31,3.35-5.44.22-7.55a8.7,8.7,0,0,0-2-.87q-.63-.19-1.27-.35-1.65-.2,0-.6,1.48-.64,2.94-1.34,3.49-1.11,1-.5a58.23,58.23,0,0,0-6.73,1.49,2.52,2.52,0,0,0-1.1,4.18,12,12,0,0,0,6.33,3.63c1.3.25,9.57-.84,9.72.52.28,2.63,4.16,3.59,4.91.66l2.13-8.3-4.18,1.1q3,3.62,6,7.3c1.41,1.76,4.27.24,4.27-1.77v-6L148,219.21q3.17-.38-.12-.45l-2.51-.23-5.86-.54,1.26,4.66,19.84-9-3.42-3.42c-2.21,4.44-3.16,9.06-3.89,13.93l4.91.66,1.17-10.3-4.27,1.77c1.65,1.79-6.22,1.36-6.44,1.35a13.81,13.81,0,0,0-4.23.48,2.53,2.53,0,0,0-1.1,4.18A13.14,13.14,0,0,0,153.67,227c3.22,0,3.22-5,0-5a8.33,8.33,0,0,1-6.79-3.26l-1.1,4.18c4.27-1.11,9.36,1.56,12.9-2.15a5.65,5.65,0,0,0,0-8c-1.62-1.75-4-.22-4.27,1.77l-1.17,10.3c-.32,2.77,4.49,3.45,4.91.66.67-4.42,1.38-8.7,3.39-12.74a2.52,2.52,0,0,0-3.42-3.42l-19.84,9c-2.49,1.13-.93,4.46,1.26,4.66,3.47.32,11.14,2.72,13.72-.52,2.35-3-.17-6-2.71-7.57a2.52,2.52,0,0,0-3.76,2.16v6l4.27-1.77q-2.94-3.68-6-7.3c-1.22-1.47-3.74-.6-4.18,1.1l-2.13,8.3,4.91.66c-1.06-10-12.75-2.85-17.52-7.69l-1.1,4.18c3-.66,9-.76,11-3.66,1.58-2.3.38-5.3-1.85-6.59-4.4-2.54-15.3,2-13.29,8,.83,2.48,3.17,2.44,5.14,3.41,1.13.56.39.05.52-.32-.25.75-2.21,2.17-2.85,2.68-2.91,2.31-5.4,2.79-8.11.15-1.73-1.68-3.74-3.21-6-1.16-2.4,2.21-1.48,7.33-1.54,10.17l4.91-.66a23.22,23.22,0,0,0-2.62-6.59,2.53,2.53,0,0,0-4.32,0,17.39,17.39,0,0,0-2.41,13.55c.49,2.36,4.37,2.41,4.82,0q1.63-8.69,2.49-17.48c.21-2.12-2.91-3.36-4.27-1.77-4.34,5.07-4.58,12.69-9.5,17.17l4.18,1.1a71.74,71.74,0,0,1-2.62-20.28c0-2.75-4.37-3.49-4.91-.66a33.68,33.68,0,0,0-.54,9.42,2.51,2.51,0,0,0,4.91.66c1.65-4.55,3.07-9.15,4.27-13.84.82-3.21-3.63-4.22-4.82-1.33A46.06,46.06,0,0,0,94.29,234c.15,2,2.74,3.54,4.27,1.77l6.39-7.38c2.1-2.42-1.42-6-3.54-3.54Z"/></g><path class="cls-3" d="M219.26,170.75c39.56,4.85,82.71-6.48,105.28-41.64.44-.68-.65-1.31-1.08-.63-22.34,34.8-65.1,45.81-104.2,41-.8-.1-.79,1.15,0,1.25Z"/><path class="cls-3" d="M215.11,171.35c48.3,17.43,105,5,141.62-31,.57-.57-.31-1.45-.88-.88-36.29,35.73-92.51,48-140.4,30.73-.76-.27-1.08.93-.33,1.21Z"/><path class="cls-3" d="M363.45,142.73a595.6,595.6,0,0,0,185.38-7.1c6.9-1.37,13.78-2.84,20.63-4.47,6.27-1.49,12.73-3.14,18-7.08,7.69-5.78,11-15.21,11.86-24.48,2.13-21.92-4.69-49-26.43-58.62C561.65,36,549,35.1,537,33.57q-23.53-3-47.07-6c-31.73-4-63.19-6.45-95.18-4.77-31.18,1.64-62.42,4-93.53,6.67-25.53,2.2-55.34,6-72.89,27-7.47,8.91-11.82,20.32-10.38,32,1.47,11.94,8.43,22.59,17.35,30.39,23.1,20.19,55.7,18.28,84.28,16.24.8-.06.8-1.31,0-1.25-25.49,1.82-54.09,3.92-76.54-10.69-20.54-13.37-31.69-39-17.33-61.1,15.28-23.51,45.87-28.52,71.62-31,28.45-2.7,57.06-4.43,85.58-6.31a493.8,493.8,0,0,1,85.87,1.57c28.18,3,56.62,6.18,84.61,10.66,12.44,2,25.13,5.67,33.31,15.91C594.19,62.36,597,75,598,86.77c.94,11,.1,23.8-7.4,32.6-8.49,10-24.44,11.4-36.49,13.91a594.42,594.42,0,0,1-190.69,8.2c-.8-.09-.79,1.16,0,1.25Z"/><path class="cls-3" d="M269.84,217.53a.63.63,0,0,0,0-1.25.63.63,0,0,0,0,1.25Z"/><g class="cls-1"><path class="cls-3" d="M75.82,210.1l.92,13.37c.22,3.18,5,3.25,5,0l0-16.79c0-3.22-5-3.22-5,0l-.14,10.85c0,1.8-.12,3.63-.07,5.43,0,0,.44,3.42.47,3.29-.4,1.46-.12,1-2.1,2.14-1.5.83-3,1.56-4.55,2.38q-4.49,2.48-8.76,5.34c-9.37,6.28-21.29,14.5-25,25.66-.65,1.94,1.92,4.14,3.67,2.82q12.37-9.3,24.19-19.3c2.46-2.08-1.09-5.6-3.54-3.54q-11.32,9.59-23.17,18.52l3.67,2.82c2.23-6.67,8.38-11.55,13.63-15.9a115.53,115.53,0,0,1,17.11-11.7c3.56-2,10.35-3.6,10.45-8.6,0-1.09-1-3.29-1.05-3.94a38.33,38.33,0,0,1,.07-5.43l.14-10.85h-5l0,16.79h5l-.92-13.37c-.22-3.19-5.22-3.22-5,0Z"/></g><g class="cls-1"><path class="cls-3" d="M57.26,104.59a121.41,121.41,0,0,1-3.34,20l3.67-1.49a5,5,0,0,1-2.66-3.89,2.52,2.52,0,0,0-3.08-1.75c-4.17,1.37-5.5,5-6,9.07a61.26,61.26,0,0,0,1.25,21c1.13,5,2.89,10.21,6.78,13.73,4.54,4.1,10.35,3.7,16,4.89,18.75,4,24.16,28.66,43.57,32.11v-4.82c-8.33,1.49-12.48-7.85-16.1-13.56a88,88,0,0,0-11.67-14.55,2.56,2.56,0,0,0-3.54,0c-5.48,4.6,0,10.33,3.59,13.91l20.18,20,3-3.93a157.46,157.46,0,0,1-24.46-22c-1.6-1.76-5.14.09-4.18,2.43a79,79,0,0,0,10,17.8c2.17,2.87,6.77,10.68,11.05,9.63a2.56,2.56,0,0,0,1.84-2.41c.19-3-2.71-5-5.26-3.23-3.86,2.72-.49,9.22,1.15,12.19,1.44,2.61,5.07.74,4.57-1.93a49.3,49.3,0,0,0-2.87-9.74L96.14,200a7.94,7.94,0,0,1,.55,7.65l4.91.66c-.06-4.18-2.36-10.53-7.88-8.16-5.74,2.46-1.21,9.13,2.36,11.19a16.63,16.63,0,0,0,9.82,1.82c2.62-.21,6.74-.39,8.87-2.21a4.6,4.6,0,0,0,1.28-4.87c-.33-1.42-1.67-2.07-.14-3.18,1.18-.86,6.25,2.56,7.46,3.32l.6-4.57a56.69,56.69,0,0,1-22-.83l-1.33,4.82,27.93,4.87c1.88.33,4.25-1.73,2.82-3.67l-3.27-4.44-1.49,3.67,4.54-1-1.93-4.57A68.86,68.86,0,0,1,117.3,206c-3.59,1.22-15.07,3.59-12.26-3.84l-4.18,1.1a42,42,0,0,0,10.89,7.43c2.36,1.11,5.4-2,3-3.93a14.88,14.88,0,0,0-6.73-3.16c-2.88-.61-10.45-1-9.39-5.58.72-3.13-4.1-4.47-4.82-1.33a8,8,0,0,0,3.38,8.66c4.19,3.09,10.05,1.74,14,4.94l3-3.93a37.58,37.58,0,0,1-9.88-6.65,2.54,2.54,0,0,0-4.18,1.1c-2.11,5.59,2.33,10.82,7.83,11.64,7.9,1.19,17.09-3.89,23.72-7.67,2.53-1.45.79-5.16-1.93-4.57l-4.54,1a2.51,2.51,0,0,0-1.49,3.67l3.27,4.44,2.82-3.67L102,200.81c-3.12-.54-4.51,4.08-1.33,4.82a63.23,63.23,0,0,0,24.66.83c2.25-.36,2.26-3.53.6-4.57-3.64-2.26-13.89-7.7-16-.73-.45,1.46,1.47,5.87,1.26,6.15-.83,1.1-7.32,1-8.51.85-2.42-.22-6.07-3.55-6,.16,0,3,3.93,3.21,4.91.66a12.65,12.65,0,0,0-1.06-11.5c-1.39-2.34-5.68-.78-4.57,1.93a49.3,49.3,0,0,1,2.87,9.74l4.57-1.93c-.48-.87-3-5.16-1.93-6.13l-2.43.64-.84-1,1.84-2.41-.53.13,2.43.64a73.09,73.09,0,0,1-16.78-24.71l-4.18,2.43a163.51,163.51,0,0,0,25.47,22.79c2.33,1.69,5-2,3-3.93l-12.52-12.4c-1.73-1.71-14.06-12.06-11.25-14.42H82.09c6.47,6.56,10.57,14.21,16,21.53,4.06,5.51,9.68,9.12,16.68,7.87,2.38-.43,2.39-4.4,0-4.82-15-2.67-21.87-19.44-33.5-27.63a27.65,27.65,0,0,0-8.72-4.18c-5.14-1.37-11.53-.39-15.63-4.39-3.74-3.65-4.87-9.76-5.67-14.7-.6-3.69-2.92-18.68,2-20.29l-3.08-1.75a10.8,10.8,0,0,0,5,6.88,2.52,2.52,0,0,0,3.67-1.49,129.5,129.5,0,0,0,3.52-21.35c.26-3.21-4.74-3.19-5,0Z"/></g><g class="cls-1"><path class="cls-3" d="M78.68,146.58c3.22,0,3.22-5,0-5s-3.22,5,0,5Z"/></g><g class="cls-1"><path class="cls-3" d="M76,142.11a14.85,14.85,0,0,0-4.42,17.29c2.84,6.47,10.22,9.53,17,9.35,7.86-.21,16.78-4.5,23-9.22,3.13-2.39,4.17-5.39,5.08-9.11,1.39-5.7,4.07-10.46,8.82-14l-3.76-2.16c0,1.91-2.33,4.28-3.32,5.82l-3.56,5.54-7.63,11.86,4.57,1.93,2.94-7.94c.47-1.28.9-2.59,1.46-3.83a6.43,6.43,0,0,1,1.18-2.24q.87-2.33,3.58-.74l3.93,3,4.09-8.55-4.57-1.93a33,33,0,0,1-7.88,14l3.93,3a31.09,31.09,0,0,1,5.05-7l-3.93-3-3.79,9c-1,2.4,1.81,5.3,3.93,3l10.56-11.32-3.93-3a32.34,32.34,0,0,0-5.51,11.44l4.82,1.33a40.29,40.29,0,0,1,5.31-12.5l-4.57-.6a3.61,3.61,0,0,1-.81,4.09l4.57.6a12.34,12.34,0,0,1,.44-7.83l-4.57.6a38.11,38.11,0,0,1,2.64,7.46c.56,2.27,4.41,2.49,4.82,0l.73-4.46-4.91-.66-1,9.12c-.34,3,4,3.13,4.91.66a19.38,19.38,0,0,1,3.35-6h-3.54l.47,3.11c-.92,2.65,3.33,4.48,4.57,1.93a22,22,0,0,1,4.66-6.44l-3.93-.51a7.51,7.51,0,0,1,.76,4c0,2,2.81,3.45,4.27,1.77a47.53,47.53,0,0,0,5.71-8.13l-4.66-1.26a11.21,11.21,0,0,1-3.25,7.5l4.18,1.1-1.46-5.71c-.68-2.66-5.17-2.2-4.91.66A38.21,38.21,0,0,0,145.14,157c.92,1.86,4.18,1.49,4.57-.6a60.94,60.94,0,0,0,1-14.75l-4.91.66a23.76,23.76,0,0,0,3.66,7.2c1.25,1.67,3.91,1.62,4.57-.6l2.22-7.49-4.57.6a30.12,30.12,0,0,1,4.51,13.39l4.91-.66A33.72,33.72,0,0,1,160,142.07l-4.27,1.77a20.55,20.55,0,0,1,6,12.49l4.66-1.26a28.28,28.28,0,0,1-3.22-10.91l-4.27,1.77a26.7,26.7,0,0,1,5.78,7.61L169,151a57.65,57.65,0,0,1-5.64-9.72l-3.42,3.42a19.84,19.84,0,0,1,7.72,6.72l3.93-3a27.25,27.25,0,0,0-31-8.18l1.93,4.57c7-3.27,17.41,3.29,24.1,5.55,6.95,2.35,14.4,5,21.7,6,6.47.86,9.84-3.64,12.26-9.11,1.87-4.23,4.53-12.21.69-16.17-3.09-3.19-6.6-.4-7.22,3.24-.44,2.6.5,5.07.93,7.59.86,5-2.63,7.54-6.79,9.53-8.51,4.08-16.71,3.44-25.78,2.15-7.95-1.13-15.72-2.76-22.66-7-2.36-1.44-5.27,2.09-3,3.93,9.14,7.5,23.26,16.28,33.56,5.39a2.53,2.53,0,0,0-1.77-4.27,29.26,29.26,0,0,1-13-3.32l-1.26,4.66,19.87.53c3.22.09,3.22-4.91,0-5l-19.87-.53c-2.42-.06-3.48,3.52-1.26,4.66a35.44,35.44,0,0,0,15.49,4l-1.77-4.27c-8.13,8.61-19.53.32-26.49-5.39l-3,3.93c10.5,6.4,24.61,8.72,36.79,8.88,8.54.11,24.94-4,26.14-14.49a18.08,18.08,0,0,0-1-7.47c-.58-1.57,0-2.68-1.12-1-.84,1.25-.63,4.4-1.17,6.07-1.43,4.36-3.91,9.37-9.35,8.24-3.62-.75-7.21-1.79-10.76-2.81-7.08-2.05-13.92-4.63-20.81-7.21-5.43-2-10.56-3.12-16-.61-2.54,1.18-.72,5.61,1.93,4.57a22.52,22.52,0,0,1,26.11,6.9c1.77,2.2,5.52-.69,3.93-3a25,25,0,0,0-9.51-8.51,2.52,2.52,0,0,0-3.42,3.42,57.65,57.65,0,0,0,5.64,9.72A2.5,2.5,0,0,0,169,151a30.51,30.51,0,0,0-6.56-8.62c-1.46-1.35-4.47-.52-4.27,1.77a34.84,34.84,0,0,0,3.91,13.44c1.1,2.1,4.93,1.24,4.66-1.26a26.31,26.31,0,0,0-7.42-16c-1.63-1.68-4.07-.28-4.27,1.77a37.82,37.82,0,0,0,1.25,14c.73,2.62,5.17,2.22,4.91-.66A35.91,35.91,0,0,0,156,139.48a2.53,2.53,0,0,0-4.57.6l-2.22,7.49,4.57-.6a20,20,0,0,1-3.16-6c-.83-2.57-5.07-2.27-4.91.66a55.09,55.09,0,0,1-.84,13.42l4.57-.6a31.27,31.27,0,0,1-3.19-11.22l-4.91.66,1.46,5.71a2.52,2.52,0,0,0,4.18,1.1,16.82,16.82,0,0,0,4.72-11c.15-2.5-3.49-3.37-4.66-1.26a41.41,41.41,0,0,1-4.93,7.11l4.27,1.77a15.66,15.66,0,0,0-1.44-6.54c-.66-1.53-2.88-1.51-3.93-.51a25.64,25.64,0,0,0-5.44,7.45l4.57,1.93a7.52,7.52,0,0,0-1.75-8,2.51,2.51,0,0,0-3.54,0,27.47,27.47,0,0,0-4.64,8.19l4.91.66,1-9.12c.32-2.77-4.46-3.45-4.91-.66l-.73,4.46h4.82a44.83,44.83,0,0,0-3.14-8.65c-1-2.1-3.91-1.25-4.57.6a17.25,17.25,0,0,0-.44,10.49c.57,2.24,3.38,2.25,4.57.6a8.74,8.74,0,0,0,1.31-7.94,2.53,2.53,0,0,0-4.57-.6,44.39,44.39,0,0,0-5.81,13.69c-.75,3.12,4,4.45,4.82,1.33a28.57,28.57,0,0,1,5-10.25c1.72-2.28-2-5.08-3.93-3l-10.56,11.32,3.93,3,3.79-9c1-2.42-1.78-5.26-3.93-3a36,36,0,0,0-5.83,8c-1.31,2.43,1.92,5.17,3.93,3a38.39,38.39,0,0,0,9.16-16.26c.74-2.65-3.32-4.54-4.57-1.93l-4.09,8.55c-1.18,2.47,1.81,5.13,3.93,3,4.09-4.07.43-10.55-5.15-9.82-8.07,1.07-10.13,13.63-12.37,19.7-1,2.76,3.1,4.21,4.57,1.93l9.16-14.23c2.18-3.39,6-7.33,6-11.51,0-1.73-2.21-3.33-3.76-2.16a28.37,28.37,0,0,0-9.78,12.46c-1.14,3-1.22,6.41-3,9.07-1.9,2.9-5.89,4.59-8.93,6.17-6,3.12-13.33,5.73-19.88,2.6-7-3.34-7.68-11.94-1.77-16.72,2.5-2-1.05-5.54-3.54-3.54Z"/></g><g class="cls-1"><path class="cls-3" d="M66.35,89.83C76.8,73.73,90.81,57.07,107.7,47.43c8.74-5,19.35-8.28,29.22-10.17,10.18-2,20.75-1.34,29.53,4.63,2.67,1.82,5.17-2.52,2.52-4.32-17.79-12.11-42.91-4.81-60.64,3.87-9.68,4.74-18,12.33-25.57,19.94A162.69,162.69,0,0,0,62,87.31c-1.76,2.71,2.57,5.22,4.32,2.52Z"/></g><g class="cls-1"><path class="cls-3" d="M125,59.38c3.67-2.08,7.41-4.26,11.55-5.24,4.76-1.13,8.83,0,13.32,1.59,2.81,1,4.16-3.06,1.93-4.57-9.64-6.52-19.9-2-30,.9l1.93,4.57A47.45,47.45,0,0,1,150.17,53l-1.49-3.67c-.53.92-8.7.8-9.9,1a72.67,72.67,0,0,0-11.63,2.69,2.53,2.53,0,0,0-1.1,4.18c3.06,3.41,7.67.17,10.85-1.37l19.62-9.51L154,41.93c-6.19,3.49-13.31,7.65-20.55,8-2.75.15-3.47,4.12-.66,4.91,1.89.53,3.85,1.24,5.77,1.63,2.31.47,1.3,1,1-.29.35,1.3,0,2.36,1.31,3.4,3.15,2.56,10.85.41,14.51.14,2.94-.22,3.24-3.84.66-4.91-3.62-1.51-10.49-4.19-13.81-.94a2.48,2.48,0,0,0-.64,2.43c1.78,5.52,8,9.2,13.08,11.14a2.52,2.52,0,0,0,3.08-1.75,7.81,7.81,0,0,0-.33-5.22c-.79-2-3.77-4.68-2.38-6.89l-3.93.51,10.34,10.22a2.53,2.53,0,0,0,4.27-1.77,12.79,12.79,0,0,0-2.53-7.71l-4.32,2.52a28.73,28.73,0,0,1,3.84,6.86l3.67-2.82c-3.1-1.84-10.73-4.53-12.42.7-2,6.21,7.41,5.49,10.08,7.63,2.49,2,6-1.52,3.54-3.54a11.34,11.34,0,0,0-4.78-2.36,9.68,9.68,0,0,0-2.85-.54c-2.58.52,3.44,2.14,3.91,2.43,1.74,1,4.48-.72,3.67-2.82a33.64,33.64,0,0,0-4.34-8.05c-1.89-2.56-6.22-.09-4.32,2.52a8.34,8.34,0,0,1,1.84,5.19l4.27-1.77L154.58,50.61a2.53,2.53,0,0,0-3.93.51,6.31,6.31,0,0,0-1,5c.48,2.57,3.81,5.78,3.19,8.31l3.08-1.75c-3.32-1.27-8.41-4-9.58-7.65l-.64,2.43c.84-.83,7.22,1.51,8.95,2.22l.66-4.91c-2.67.2-6.69-.24-9.16.67-1.44.53-2.07,0-1.61,1-.18-.39.16-1.3,0-1.77-1.06-3.41-7.84-3.85-10.46-4.59L133.44,55c8.17-.45,16.07-4.79,23.07-8.73,2.83-1.6.34-5.71-2.52-4.32-2,1-23.55,12.63-24.41,11.66l-1.1,4.18a68.52,68.52,0,0,1,17.38-3.18c2.86-.14,5.57,0,7.15-2.78.72-1.26.15-3.43-1.49-3.67a53.62,53.62,0,0,0-30.28,4.17c-2.61,1.17-.75,5.34,1.93,4.57,8.61-2.48,17.9-7,26.17-1.41l1.93-4.57C146.5,49.25,142,48.1,137,49c-5.2.89-9.92,3.53-14.45,6.1-2.8,1.59-.28,5.91,2.52,4.32Z"/></g><g class="cls-1"><path class="cls-3" d="M44,50.47c-9.4,9.27-1.51,28.41,5.21,37,1.79,2.28,5.29-.63,3.93-3l-8.25-14.5L42.09,73.6c3.3.85,6.43,9.63,7.56,12.37l4.18-2.43a12.18,12.18,0,0,1-3.32-7.09l-4.18,2.43a102.37,102.37,0,0,1,8.91,10.26l3.93-3c.54.6,3.61-6,3.62-7.17,0-2.07-2.8-3.43-4.27-1.77a17.15,17.15,0,0,0-4.43,9.24c-.37,2.5,3.34,4.78,4.57,1.93a87.59,87.59,0,0,1,7.58-14l-4.57-1.93a14.85,14.85,0,0,1-2.07,4.79c-.89,1.32-3.57,3.15-4.12,4.59q-1.4.81.45,1.93a8.8,8.8,0,0,1-.11-3.32A12.64,12.64,0,0,1,58,74.63c1.74-2.73-2.55-5.19-4.32-2.52l-2.53,3.83a2.52,2.52,0,0,0,1.49,3.67c3.24.71,8.46-.3,7.15-4.9-.58-2-2.28-2.41-4-3.3A22.55,22.55,0,0,1,47,64c-1.55-2.22-5.4-.95-4.57,1.93A28.08,28.08,0,0,0,53,81.09c2.58,1.93,5.08-2.41,2.52-4.32a22.54,22.54,0,0,1-8.31-12.19L42.66,66.5a28.43,28.43,0,0,0,5.57,6.13,25.55,25.55,0,0,0,3.3,2.25,17.28,17.28,0,0,0,2,1q1.26.84.45-1.11l1.49,3.67L58,74.63l-4.32-2.52c-2,3.14-6.09,15,.45,16,2.62.43,5-2.79,6.54-4.39a22.22,22.22,0,0,0,5.85-10,2.51,2.51,0,0,0-4.57-1.93,87.59,87.59,0,0,0-7.58,14l4.57,1.93a12.65,12.65,0,0,1,3.14-7l-4.27-1.77c0,2.07-3.07,4-3.5,6.14a4.73,4.73,0,0,0,1.35,4.57c1.87,2.06,5.66-.74,3.93-3a112.06,112.06,0,0,0-9.69-11.27c-1.91-1.94-4.52.13-4.18,2.43a16.61,16.61,0,0,0,4.61,9.29c1.61,1.72,5.15-.06,4.18-2.43-2-4.87-5.34-14.39-11.05-15.87a2.53,2.53,0,0,0-2.82,3.67L48.85,87l3.93-3a36.79,36.79,0,0,1-6.66-14.79C45,64.34,43.66,57.86,47.57,54c2.29-2.26-1.24-5.8-3.54-3.54Z"/></g><path class="cls-3" d="M135.83,139.27c-3.5-3.55-6.31-10.05-12.32-8.21a23.28,23.28,0,0,0-14.43,13.65c-1.42,4-1.9,8.62-4.62,12-3.78,4.75-10,5.28-15.65,5.44-6.93.2-13.27-2.34-13.83-10.19-.43-6,3.47-11.14,7.71-14.94.6-.54-.29-1.42-.88-.88-5.59,5-10.27,12.54-7.06,20.19,3.42,8.14,12.74,7.74,20.2,6.6,8.75-1.33,12-6.58,14.3-14.54,1.93-6.71,5.38-11.3,11.65-14.67,3.72-2,6.5-2.05,9.62,1.11,1.61,1.63,2.8,3.66,4.42,5.3.57.57,1.45-.31.88-.88Z"/><path class="cls-3" d="M138.23,140.8c9.28-7.09,21.09-4.37,30.05,1.79,5.86,4,11.27,10.6,19.16,9.14,6.47-1.2,11.92-7,13.51-13.26,1.47-5.76-1.44-12.14-8-12-.8,0-.81,1.27,0,1.25,9.2-.27,7.77,10.5,4.53,15.44-2.52,3.84-6.9,7.25-11.65,7.48-7.39.36-12.56-6.43-18.3-10.08-9.11-5.79-20.86-7.8-29.93-.88-.63.48,0,1.57.63,1.08Z"/><path class="cls-3" d="M73.29,142.59C71,148.81,68.78,156.07,73,162c2.95,4.1,8.06,6.35,13,6.82,8.12.76,16.13-2.89,23.42-6a73.78,73.78,0,0,0,8.9-4.26c3.38-2,6.25-5.58,10-6.33,4.53-.9,9.84,2.58,14.28,3.93a104.64,104.64,0,0,0,12.65,3c7.36,1.29,15.31,2.25,22.77,1.19,15.21-2.16,17.76-15.28,17.44-28.52a.63.63,0,0,0-1.25,0c.15,6.36.3,13.43-3,19.13-4,7-12,8.54-19.52,8.51a99,99,0,0,1-22.52-2.83q-5-1.19-9.82-2.86c-3.13-1.08-6.52-3.29-9.81-3.63-4.19-.44-7.38,4.45-10.53,6.47-6,3.83-13,6.51-19.69,8.76s-14.23,3.53-20.63-.12c-8.87-5.07-7.22-14.2-4.24-22.39.28-.76-.93-1.08-1.21-.33Z"/><path class="cls-3" d="M87.28,95.75l-1.85,19.69,1.23-.17A81.3,81.3,0,0,1,85,98.15a77.8,77.8,0,0,1,.55-8.22c.32-2.64,1.12-5.51,4.22-6.29.84-.21,2.71.57,3.58.74a105,105,0,0,0,13.7,2.11c5.11.35,9.72-.46,14.73-1.16,3.84-.54,7-.45,9.4,2.84s2,6.6,2.17,10.4c.1,2.52.57,5.33.3,7.83-.22,2.08-.55,3.74-2.66,5.06-1,.59-3.39.66-4.58.85a104.12,104.12,0,0,1-35.79-.64c-.79-.15-1.12,1.06-.33,1.21a106.54,106.54,0,0,0,23.32,1.91,102.63,102.63,0,0,0,10.37-.86c2.61-.35,7.47-.36,9.64-2.1a3.42,3.42,0,0,0,1.35-2.37c.91-3.52-.29-9.23-.44-12.85-.2-4.82-.28-10-5.41-12.1-5.44-2.2-12,.72-17.54.85a69.16,69.16,0,0,1-14.29-1.49c-2.62-.49-6.15-2.07-8.78-1.69-4.35.64-4.05,6.05-4.39,9.55a81.4,81.4,0,0,0,1.33,23.86c.15.74,1.17.49,1.23-.17l1.85-19.69c.08-.8-1.18-.8-1.25,0Z"/><path class="cls-3" d="M141.18,91.74a82.9,82.9,0,0,0,.51,17.65c.09.69,1.32.53,1.23-.17a127.83,127.83,0,0,1-1-13c-.05-2.26-.47-5.23.06-7.44.71-2.9.71-2.49,3.37-2.8,4.14-.49,9.12.28,13.27.73,3.25.35,13.26,1.33,14.6,4.81.6,1.55-.47,4.23-.22,6.11.77,5.84,4.28,12.37-5.19,13.9-4.29.7-9.08.25-13.43.37l-14.6.38a.63.63,0,0,0-.6.46,2.13,2.13,0,0,0,.21,1.77c.32.74,1.4.1,1.08-.63.14.32,15.28-.77,16.84-.81,4.41-.12,10.39.85,14.52-1,8.1-3.62.08-14.84,3.45-20.51a.64.64,0,0,0-.22-.86c-10.11-6.37-22.07-5.28-33.49-6.26a.63.63,0,0,0-.62.63,128.21,128.21,0,0,0,.74,24.13l1.23-.17a81.28,81.28,0,0,1-.46-17.32c.06-.8-1.19-.8-1.25,0Z"/><path class="cls-3" d="M135.38,94.78A4.11,4.11,0,0,1,139,98.44l1.07-.44a11.11,11.11,0,0,0-6.45-3.68c-.78-.14-1.12,1-.33,1.21l7.53,2a.63.63,0,0,0,.33-1.21l-7.53-2-.33,1.21a10,10,0,0,1,5.9,3.35.63.63,0,0,0,1.07-.44,5.4,5.4,0,0,0-4.86-4.91c-.8-.09-.79,1.16,0,1.25Z"/><path class="cls-3" d="M114.35,93.54,117,95.83l.73.62-1.33,1.18c-.48.16-1.64-.33-2.13-.5-1.3-.44-2.58-.75-1.81-2.49a25.08,25.08,0,0,1,2.09-3.19c.37-.56-.33-1.11-.86-.86a5.83,5.83,0,0,0-3.38,6,5.59,5.59,0,0,0,4.93,4.82c1.59.11,4.91-1.25,3.72-3.38-.53-1-1.78-.77-2.66-1.12a3.88,3.88,0,0,1-2.2-4.71.63.63,0,0,0-1-.61,4.53,4.53,0,0,0,5,7.32c.74-.3.41-1.51-.33-1.21a3.29,3.29,0,0,1-3.81-5.23l-1-.61a5.13,5.13,0,0,0,3.62,6.43c.23.05.9,0,1,.17,1,1-1.34,1.68-1.81,1.71a4,4,0,0,1-3.4-1.8,4.52,4.52,0,0,1,2-6.73l-.86-.86c-.91,1.38-3.26,3.77-2.73,5.61.46,1.57,3.56,2.18,4.9,2.39s3.26-.27,3.51-1.84a1.52,1.52,0,0,0-.55-1.4,36.26,36.26,0,0,0-3.39-2.92c-.61-.52-1.49.36-.88.88Z"/><path class="cls-3" d="M160,93.65c.32,1.84,1.75,4.73,3.9,5a1,1,0,1,0,.57-2,.64.64,0,0,0-.71.29c-1.17,1.56-2.92-.08-3.29-1.25a7,7,0,0,1-.17-2.54c0-.69-.83-.76-1.16-.32-1.58,2.08-3.4,4.88-2,7.54,1,1.91,4.08,3.4,6.18,2.58,1.54-.6,2.41-2.76.85-3.87-1-.73-1.66,0-2.61.35-2.56,1.05-2.41-2.77-2.93-4.29a.63.63,0,0,0-1.21.33c.49,2.2,3.45,7.73,6.43,5.78.67-.44,0-1.52-.63-1.08-2.06,1.34-4.31-3.74-4.6-5l-1.21.33c.64,1.84.63,6.09,3.73,5.53a1.87,1.87,0,0,0,.6-.22,1.62,1.62,0,0,0,.43-.27q.88-.76-.12,1.41c-.85.39-3-1-3.44-1.61-1.83-2.26.14-5,1.56-6.86l-1.16-.32c-.11,1.85.1,4.18,1.92,5.19a2.91,2.91,0,0,0,3.87-.76l-.71.29a8.77,8.77,0,0,1-2.2-2.41,5.92,5.92,0,0,1-.73-2.12c-.14-.79-1.34-.46-1.21.33Z"/><path class="cls-3" d="M174,95.57a2.85,2.85,0,0,0,1.41,0c.88-.22,1.65-.82,1.59.61a16.81,16.81,0,0,1-1,4.14l.92-.37-2.64-1.82c-.66-.46-1.29.62-.63,1.08l2.64,1.82a.63.63,0,0,0,.92-.37,27.91,27.91,0,0,0,.85-3.3,4.6,4.6,0,0,0,.13-2.45c-.74-1.75-2.68-.25-3.86-.51-.78-.17-1.12,1-.33,1.21Z"/><path class="cls-3" d="M81.21,91.9c-.91.2-3.15.48-3.67,1.44s.87,1.68,1.32,2.34c1.18,1.73-.5,3.25.1,5a1.82,1.82,0,0,0,1.9,1.35c.8-.05.8-1.3,0-1.25-1.41.09-.28-2.72-.24-3.19a3.78,3.78,0,0,0-.34-2c-.15-.33-1.21-1.31-1.23-1.49-.06-.62,2-.92,2.49-1,.79-.17.45-1.38-.33-1.21Z"/><path class="cls-3" d="M180.09,108c1.41,11.83,0,24.13-.37,36,0,.8,1.22.8,1.25,0,.41-11.88,1.78-24.18.37-36-.09-.79-1.35-.8-1.25,0Z"/><path class="cls-3" d="M175.53,164.33c-3.32,20.36-22.21,31.71-41.11,35.13-10.51,1.9-21.57,2.46-31.37-2.4C94.8,193,88.31,186,82.61,179c-.5-.63-1.38.26-.88.88,6.25,7.78,13.49,15.26,22.8,19.29,9.51,4.12,20.25,3.33,30.23,1.53,19.29-3.49,38.59-15.25,42-36,.13-.79-1.08-1.13-1.21-.33Z"/><path class="cls-3" d="M104.16,43.47C120,35.56,138.58,33.64,156,33.33c7.05-.12,19.78-1.48,25.14,4.25,5.58,6-4.3,10.88-8,13.56q-5.15,3.68-10.4,7.24c-.66.45,0,1.53.63,1.08,5-3.39,9.94-6.85,14.8-10.42,2.36-1.73,5.42-3.62,6-6.72,1.39-7-9.13-9.26-13.92-9.82-11.54-1.36-23.75-.35-35.22,1.14-10.92,1.41-21.64,3.82-31.54,8.76-.72.36-.09,1.44.63,1.08Z"/><path class="cls-3" d="M105.41,40.22c8.37-4.48,17-9,26.41-10.75,9.62-1.73,19.16.73,28.81.66a.63.63,0,0,0,0-1.25c-9.76.07-19.41-2.39-29.14-.62C122,30,113.24,34.62,104.78,39.15c-.71.38-.08,1.46.63,1.08Z"/><path class="cls-3" d="M172.21,31.68a4.85,4.85,0,0,0,4.41-6.62c-1.6-4.68-7.19-5.57-11.45-6-16-1.64-33.1,1.53-48.76,4.58A301.7,301.7,0,0,0,69.21,36.9C62,39.59,54.77,42.52,47.77,45.81c-4.68,2.2-11.41,4.82-13,10.29-4.69,15.84,7.48,33.18,15.84,45.37.45.66,1.54,0,1.08-.63C47.45,94.68,43.19,88.49,40,81.7s-8.37-21.29-2.59-28.14c4.63-5.48,14.47-8.37,20.88-11Q69,38.05,80,34.43a301.71,301.71,0,0,1,44-10.92c7.88-1.34,15.82-2.38,23.79-3A113.32,113.32,0,0,1,159.4,20a57,57,0,0,1,7.44.57,18.51,18.51,0,0,1,3.25.6q6.64,1.29,2.12,9.29c-.8.07-.8,1.32,0,1.25Z"/><path class="cls-3" d="M58.33,97.86a103.53,103.53,0,0,1,53.93-61.42c.73-.34.09-1.42-.63-1.08A104.75,104.75,0,0,0,57.13,97.53c-.25.77,1,1.1,1.21.33Z"/><path class="cls-3" d="M113.49,56.88A49.33,49.33,0,0,1,136,46.28c8.35-1.52,16.89-1,25.19-2.88l-.61-1c-2.14,2-5.42,4.19-6.81,6.82a.64.64,0,0,0,.1.76c2.77,2.61,7.55,3.91,11,5.59,1.2.59,7.57,3,2.69,6,0,0-3.1.2-3.49.74-2.2,3,4.84,7.27,6.56,8.9l.76-1a17.59,17.59,0,0,0-9.51-2.65c-2.33,0-4.64.55-7,.54-4,0-6.14-2.22-8.57-5-5.72-6.56-14.63-6.32-22.62-5.75-.8.06-.8,1.31,0,1.25,5.17-.37,10.62-.82,15.58,1.08,4.65,1.78,5.91,5.53,9.64,8.11,2.25,1.56,4.86,1.63,7.5,1.49,5.29-.29,9.5-.85,14.32,2a.63.63,0,0,0,.76-1c-1.47-1.39-4.64-3.31-5.41-5.12-1.06-2.52,1.19-1.91,2.87-2.77a3.13,3.13,0,0,0,2-3.35c-.44-2.73-4.29-4-6.35-5-1.64-.79-6.53-2.18-7.66-3.68-1.94-2.58,2.84-5.54,4.52-7.11a.63.63,0,0,0-.61-1c-9.32,2.12-19,1.23-28.31,3.55A50.83,50.83,0,0,0,112.61,56c-.62.51.27,1.39.88.88Z"/><path class="cls-3" d="M123.17,57.52c-7.21-2.63-14.71-1.82-21.8.85-6.83,2.57-14.37,6.3-20,10.93C78,72,75.68,75.55,72.72,78.56c-2.76,2.81-5.85,5.27-8.29,8.39-4.56,5.85-7.12,13.3-9.32,20.3l1.21.33c.23-1.49,0-2.23-1.48-2.85a.63.63,0,0,0-.92.71,43.07,43.07,0,0,1,1.37,13.48l1.07-.44c-2.2-2.28-5.89-2.65-8,.08-3.1,4.08-2.31,13-1.86,17.72.9,9.39,6.28,27.42,18.37,27,.8,0,.81-1.28,0-1.25-9.17.33-14.42-12.36-16.14-19.73a47.22,47.22,0,0,1-1.2-10.72c0-1.57.07-3.15.21-4.72s.34-3,.6-4.49q.38-4.49,7.1-3a.63.63,0,0,0,1.07-.44,44.31,44.31,0,0,0-1.41-13.81l-.92.71.91,1.44a.63.63,0,0,0,1.21.33c2.22-7,4.75-14.56,9.48-20.37a81,81,0,0,1,6.68-6.67c2.61-2.54,4.76-5.44,7.27-8.06,4.77-5,12-8.44,18.22-11.31,7.91-3.65,16.45-5.51,24.87-2.44.76.28,1.08-.93.33-1.21Z"/><path class="cls-3" d="M171.36,74.54A96.11,96.11,0,0,1,180.09,111c0,.8,1.28.81,1.25,0a97.81,97.81,0,0,0-8.9-37.08c-.34-.73-1.41-.1-1.08.63Z"/><path class="cls-3" d="M125,159.85c3.4,2.89,6.92,5.5,11.59,4.71l-.61-1c-2,1.65-2.34,4-3.61,6.13-1.5,2.55-5.24,2.06-7.78,1.35-1.85-.52-2.6-.6-3.54-2.47s-.66-2.84,0-4.81c.25-.77-1-1.1-1.21-.33-.66,2-1.37,4.51-.06,6.47s4.78,2.5,7,3c2,.42,4,.53,5.55-1,2.16-2.09,2.16-5.47,4.54-7.41.54-.44-.07-1.14-.61-1-4.2.7-7.38-1.84-10.38-4.39-.61-.52-1.5.36-.88.88Z"/><path class="cls-3" d="M121.78,220.49a63.85,63.85,0,0,0,1.54,8.49.63.63,0,0,0,1,.28c1.25-1.56.3-3.13,3.14-3.26,1.79-.08,3.24.21,5-.51a6.92,6.92,0,0,0,4.47-6.13c.07-2.54-1.26-4.52-3.83-4.72a20.79,20.79,0,0,0-11.62,2.52.63.63,0,0,0,.63,1.08c2.87-1.71,6-2.11,9.32-2.28,2.24-.12,4.46,1.12,4.2,3.69a5.54,5.54,0,0,1-2.92,4.36,8.19,8.19,0,0,1-4.44.85c-.94-.06-1.88-.44-2.79-.08-1.66.65-1.08,2.39-2,3.6l1,.28a61.25,61.25,0,0,1-1.5-8.15c-.09-.79-1.34-.8-1.25,0Z"/><path class="cls-3" d="M113.87,223.12a.63.63,0,0,0,0-1.25.63.63,0,0,0,0,1.25Z"/><path class="cls-3" d="M115.12,222.74l3.53-.09a.63.63,0,0,0,.44-1.07c-5.44-6.19-15.69-8.64-23.1-11.57a.63.63,0,0,0-.77.77c.94,2.64-1.2,6.32-2,8.82-.6,1.95-1.09,3.92-1.49,5.91a67,67,0,0,0-1.23,11.42.63.63,0,0,0,1.07.44c3.07-2.5,9.07,13.84,14.77,11.12,2.13-1,3.07-4.54,4-6.44,2.33-4.68,4.69-9.06,9.55-11.52.72-.36.09-1.44-.63-1.08a17.81,17.81,0,0,0-6.78,6.09,48.88,48.88,0,0,0-3.22,5.88c-1.8,3.62-3.06,8-8.57,3.1-2.42-2.15-5.43-11.77-10-8l1.07.44A63.56,63.56,0,0,1,94,221.61c.47-1.68,1-3.33,1.61-5,0,0,1.37-4.72,1.34-4.71,1.06-.54,7.14,2.64,8.58,3.24,4.52,1.87,9.4,3.52,12.71,7.3l.44-1.07-3.53.09a.63.63,0,0,0,0,1.25Z"/><path class="cls-3" d="M140.14,214.67l13.29-4.3c1.79-.58,4.87-2.36,6.57-1.39s1.57,4.07,1.85,5.94c.3,2,1,5,.81,7.23q1.09,4.84-5.49,6.25a27.5,27.5,0,0,1-5.2-.57c-4.57-.72-9.12-1.56-13.69-2.35-.79-.13-1.12,1.07-.33,1.21,6.44,1.1,14.59,4,21.16,2.82,6.16-1.07,5-5.94,4.46-11.06-.34-3.06.2-10.44-3.46-11.34-1.67-.41-5.35,1.53-7,2.06l-13.29,4.3c-.76.25-.44,1.45.33,1.21Z"/><path class="cls-3" d="M112.69,224.66c-1.94-2.84-5.32-2.28-8.21-1.43-.41.12-.67.74-.28,1,3.08,2.39,6.78,4.81,10.69,2.77.52-.27.31-1.25-.32-1.16-1.47.19-6.28.73-6.26,2.79a.63.63,0,0,0,.63.63h.12c.8,0,.81-1.29,0-1.25h-.12l.63.63c0-.69,4.54-1.47,5-1.54l-.32-1.16c-3.33,1.74-6.59-.58-9.17-2.58l-.28,1c2.24-.66,5.22-1.44,6.8.86.45.66,1.54,0,1.08-.63Z"/><path class="cls-3" d="M141.45,218.3a.82.82,0,0,1,.71-.25l-.6-.79c-.22,1-2.15,1.75-.95,3a5.27,5.27,0,0,0,2.17.93l3.65,1.22c.76.25,1.09-1,.33-1.21a36,36,0,0,1-4.46-1.49c-.79-.39-.62-.54-.13-1.08a2.24,2.24,0,0,0,.59-1.06.63.63,0,0,0-.6-.79,2,2,0,0,0-1.34.42c-.63.48,0,1.57.63,1.08Z"/><path class="cls-3" d="M124.11,213.71a77.75,77.75,0,0,1-23.35-4.79c-6.62-2.32-15.85-4.54-20.51-10.06a.63.63,0,0,0-1,.28A86.11,86.11,0,0,0,76.52,227c.05.8,1.3.8,1.25,0a83.51,83.51,0,0,1,1.34-22.08c.18-.88.37-3.41,1-3.84s.76.52,1.4.87a64,64,0,0,0,6,3.2c11.7,4.9,23.76,9.44,36.57,9.83.8,0,.8-1.23,0-1.25Z"/><path class="cls-3" d="M135.41,213.72a118.39,118.39,0,0,0,26.13-16.53c1.93-1.59,4.21-4.82,5.48-1.64,1,2.48,1.26,5.43,2,8a125,125,0,0,0,5.77,15.65c.32.73,1.4.1,1.08-.63a124,124,0,0,1-8.2-26.07.63.63,0,0,0-.92-.37c-5.49,2.45-9.89,7.46-14.81,10.85a113,113,0,0,1-17.16,9.65c-.73.33-.1,1.41.63,1.08Z"/><path class="cls-3" d="M79.48,227.76a57.83,57.83,0,0,0,10.64,2.13c.8.08.79-1.17,0-1.25a56.07,56.07,0,0,1-10.31-2.09.63.63,0,0,0-.33,1.21Z"/><path class="cls-3" d="M170.07,217.13c-4.14,3.38-10.55,3.77-13,9.1-.33.73.75,1.36,1.08.63,2.3-5.08,8.79-5.59,12.77-8.84.62-.51-.27-1.39-.88-.88Z"/><path class="cls-3" d="M155.62,232.87a.63.63,0,0,0,0-1.25.63.63,0,0,0,0,1.25Z"/><path class="cls-3" d="M73.18,229.4a341.61,341.61,0,0,0-40.85,28.77c-.62.51.27,1.39.88.88a339.41,339.41,0,0,1,40.6-28.58.63.63,0,0,0-.63-1.08Z"/><path class="cls-3" d="M175,219.6c12.58,10.62,29.45,12.36,43.94,19.22.72.34,1.36-.73.63-1.08-14.36-6.8-31.24-8.52-43.69-19-.61-.52-1.5.36-.88.88Z"/><path class="cls-3" d="M90.06,197.4l2,7a.63.63,0,0,0,1.21-.33l-2-7a.63.63,0,0,0-1.21.33Z"/><path class="cls-3" d="M92.12,187.62a.63.63,0,0,0,0-1.25.63.63,0,0,0,0,1.25Z"/><path class="cls-3" d="M89.93,186.59l-2-.67-1.23.17c2.77,6.66,4.55,13.82,6.67,20.71l1.21-.33a200.65,200.65,0,0,1-7.6-21.63.63.63,0,0,0-1.21.33,200.65,200.65,0,0,0,7.6,21.63c.3.72,1.45.46,1.21-.33-2.13-6.89-3.9-14-6.67-20.71-.24-.58-1.31-.61-1.23.17.22,2.13,1.65,2.4,3.61,1.87a.63.63,0,0,0-.33-1.21Z"/><path class="cls-3" d="M69.65,161.42c1.17,4.05,4.5,7.81,7,11.15a60.14,60.14,0,0,0,9.43,10.26c.61.52,1.5-.36.88-.88a58.94,58.94,0,0,1-9.24-10c-2.38-3.2-5.73-7-6.85-10.85a.63.63,0,0,0-1.21.33Z"/></svg>